<svg width="21" height="21" viewBox="0 0 21 21" fill="none" xmlns="http://www.w3.org/2000/svg">
<path d="M10.5 0C4.70225 0 0 4.70138 0 10.5C0 15.1392 3.00825 19.075 7.18112 20.4636C7.70525 20.5607 7.875 20.2353 7.875 19.9587V18.004C4.95425 18.6392 4.34613 16.765 4.34613 16.765C3.86838 15.5514 3.17975 15.2285 3.17975 15.2285C2.22688 14.5766 3.25238 14.5906 3.25238 14.5906C4.30675 14.6641 4.8615 15.673 4.8615 15.673C5.79775 17.2778 7.31763 16.814 7.917 16.5454C8.01062 15.8673 8.28275 15.4035 8.58375 15.1419C6.25188 14.875 3.80012 13.9746 3.80012 9.95225C3.80012 8.80512 4.2105 7.86888 4.88163 7.13387C4.77313 6.86875 4.4135 5.80037 4.984 4.35488C4.984 4.35488 5.866 4.07312 7.87237 5.43112C8.70975 5.19837 9.6075 5.082 10.5 5.07762C11.3925 5.082 12.2911 5.19837 13.1302 5.43112C15.1349 4.07312 16.0151 4.35488 16.0151 4.35488C16.5865 5.80125 16.2269 6.86963 16.1184 7.13387C16.7921 7.86888 17.199 8.806 17.199 9.95225C17.199 13.9851 14.7429 14.8733 12.4049 15.1331C12.7811 15.4586 13.125 16.0974 13.125 17.0774V19.9587C13.125 20.2379 13.293 20.566 13.8259 20.4627C17.9952 19.0724 21 15.1375 21 10.5C21 4.70138 16.2986 0 10.5 0Z" fill="#89E3FF"/>
</svg>
